{
  "accessors": [
    {
      "bufferView": 2,
      "componentType": 5126,
      "count": 10469,
      "max": [
        0.7404282093048096,
        0.6678252220153809,
        0.7706050872802734
      ],
      "min": [
        -0.38784855604171753,
        -0.46562063694000244,
        -0.42072010040283203
      ],
      "type": "VEC3"
    },
    {
      "bufferView": 2,
      "byteOffset": 125628,
      "componentType": 5126,
      "count": 10469,
      "max": [
        0.9998767375946045,
        0.9997404217720032,
        0.9980065226554871
      ],
      "min": [
        -0.999406099319458,
        -0.9999540448188782,
        -0.999985933303833
      ],
      "type": "VEC3"
    },
    {
      "bufferView": 1,
      "componentType": 5126,
      "count": 10469,
      "max": [
        0.9969937801361084,
        0.9999908208847046
      ],
      "min": [
        5.587935447692871e-05,
        5.766749382019043e-05
      ],
      "type": "VEC2"
    },
    {
      "bufferView": 0,
      "componentType": 5125,
      "count": 60099,
      "type": "SCALAR"
    },
    {
      "bufferView": 2,
      "byteOffset": 251256,
      "componentType": 5126,
      "count": 9403,
      "max": [
        0.38047340512275696,
        0.6510565280914307,
        0.48377561569213867
      ],
      "min": [
        -0.693821132183075,
        -0.43054312467575073,
        -0.7741737365722656
      ],
      "type": "VEC3"
    },
    {
      "bufferView": 2,
      "byteOffset": 364092,
      "componentType": 5126,
      "count": 9403,
      "max": [
        0.9915592670440674,
        0.9993927478790283,
        0.9989588856697083
      ],
      "min": [
        -0.9998526573181152,
        -0.9986833930015564,
        -0.9991639256477356
      ],
      "type": "VEC3"
    },
    {
      "bufferView": 1,
      "byteOffset": 83752,
      "componentType": 5126,
      "count": 9403,
      "max": [
        0.8137018084526062,
        0.9999475479125977
      ],
      "min": [
        1.9445084035396576e-05,
        7.192679186118767e-05
      ],
      "type": "VEC2"
    },
    {
      "bufferView": 0,
      "byteOffset": 240396,
      "componentType": 5125,
      "count": 53871,
      "type": "SCALAR"
    }
  ],
  "asset": {
    "extras": {
      "author": "matousekfoto (https://sketchfab.com/matousekfoto)",
      "license": "CC-BY-4.0 (http://creativecommons.org/licenses/by/4.0/)",
      "source": "https://sketchfab.com/3d-models/pistol-cz-p-07-90f88de7f5444e59933453a0853b9756",
      "title": "Pistol CZ P-07"
    },
    "generator": "Sketchfab-11.67.0",
    "version": "2.0"
  },
  "bufferViews": [
    {
      "buffer": 0,
      "byteLength": 455880,
      "name": "floatBufferViews",
      "target": 34963
    },
    {
      "buffer": 0,
      "byteLength": 158976,
      "byteOffset": 455880,
      "byteStride": 8,
      "name": "floatBufferViews",
      "target": 34962
    },
    {
      "buffer": 0,
      "byteLength": 476928,
      "byteOffset": 614856,
      "byteStride": 12,
      "name": "floatBufferViews",
      "target": 34962
    }
  ],
  "buffers": [
    {
      "byteLength": 1091784,
      "uri": "scene.bin"
    }
  ],
  "images": [
    {
      "uri": "textures/material0_baseColor.jpeg"
    },
    {
      "uri": "textures/material1_baseColor.jpeg"
    }
  ],
  "materials": [
    {
      "doubleSided": true,
      "name": "material0",
      "pbrMetallicRoughness": {
        "baseColorTexture": {
          "index": 0
        },
        "metallicFactor": 0.6,
        "roughnessFactor": 0.76
      }
    },
    {
      "doubleSided": true,
      "name": "material1",
      "pbrMetallicRoughness": {
        "baseColorTexture": {
          "index": 1
        },
        "metallicFactor": 0.6,
        "roughnessFactor": 0.7595524318753553
      }
    }
  ],
  "meshes": [
    {
      "name": "Model_material0_0",
      "primitives": [
        {
          "attributes": {
            "NORMAL": 1,
            "POSITION": 0,
            "TEXCOORD_0": 2
          },
          "indices": 3,
          "material": 0,
          "mode": 4
        }
      ]
    },
    {
      "name": "Model_material1_0",
      "primitives": [
        {
          "attributes": {
            "NORMAL": 5,
            "POSITION": 4,
            "TEXCOORD_0": 6
          },
          "indices": 7,
          "material": 1,
          "mode": 4
        }
      ]
    }
  ],
  "nodes": [
    {
      "children": [
        1
      ],
      "matrix": [
        0.07006646078050416,
        -0.054133849572322014,
        -0.09288125348100619,
        0.0,
        0.06878466553938711,
        0.10777746036444658,
        -0.010926975539539894,
        0.0,
        0.08262003838182164,
        -0.04382071176529181,
        0.0878657118836612,
        0.0,
        -0.04246607795357704,
        -0.07747773826122283,
        -0.07440483570098878,
        1.0
      ],
      "name": "Sketchfab_model"
    },
    {
      "children": [
        2
      ],
      "matrix": [
        0.009999999776482582,
        0.0,
        0.0,
        0.0,
        0.0,
        0.0,
        0.009999999776482582,
        0.0,
        0.0,
        -0.009999999776482582,
        0.0,
        0.0,
        0.0,
        0.0,
        0.0,
        1.0
      ],
      "name": "guntest.fbx"
    },
    {
      "children": [
        3
      ],
      "name": "RootNode"
    },
    {
      "children": [
        4,
        5
      ],
      "matrix": [
        100.0,
        0.0,
        0.0,
        0.0,
        0.0,
        -1.629206793918314e-05,
        -99.99999999999868,
        0.0,
        0.0,
        99.99999999999868,
        -1.629206793918314e-05,
        0.0,
        0.0,
        0.0,
        0.0,
        1.0
      ],
      "name": "Model"
    },
    {
      "mesh": 0,
      "name": "Model_material0_0"
    },
    {
      "mesh": 1,
      "name": "Model_material1_0"
    }
  ],
  "samplers": [
    {
      "magFilter": 9729,
      "minFilter": 9987,
      "wrapS": 10497,
      "wrapT": 10497
    }
  ],
  "scene": 0,
  "scenes": [
    {
      "name": "Sketchfab_Scene",
      "nodes": [
        0
      ]
    }
  ],
  "textures": [
    {
      "sampler": 0,
      "source": 0
    },
    {
      "sampler": 0,
      "source": 1
    }
  ]
}
